<?xml version="1.0" encoding="UTF-8"?>
<svg id="Capa_2" data-name="Capa 2" xmlns="http://www.w3.org/2000/svg" viewBox="0 0 749.21 428.77">
  <defs>
    <style>
      .cls-1 {
        fill: #fff;
      }
    </style>
  </defs>
  <g id="Capa_1-2" data-name="Capa 1">
    <g>
      <path class="cls-1" d="M505.86,91.35h0c13.13,0,25.35,7.81,32.67,20.9,2.71,4.85,5.58,9.27,8.54,13.15,11.42,14.99,21.18,21.11,33.69,21.11,5.82,0,12.53-1.38,20.51-4.21,8.14-2.89,16.12-5.54,24.32-6.26,1.09-.1,2.19-.15,3.26-.15,14.44,0,26.49,8.88,32.23,23.75,6.1,15.79,2.84,33.1-8.51,45.19-3.47,3.69-7.41,7.44-12.41,11.8-19.77,17.22-25.61,38.9-17.86,66.26,1.7,5.99,3.3,11.87,4.31,17.98,3.55,21.55-6.12,40.38-24.08,46.85-3.92,1.41-7.97,2.13-12.02,2.13-14.13,0-26.95-8.74-33.47-22.8-8.32-17.96-3.2-39.46,12.47-52.28,23.37-19.12,32.53-41.01,28.02-66.91-4.37-25.08-25.95-41.94-53.7-41.94-4.71,0-9.53.51-14.3,1.5-2.56.54-5.07,1.23-7.73,1.97-3.81,1.05-7.75,2.15-11.78,2.7-1.75.24-3.51.36-5.23.36-16.49,0-30.18-11.39-34.89-29-2.4-8.99-1.82-18.69,1.64-27.31,3.45-8.59,9.62-15.76,17.37-20.19,5.36-3.06,11.07-4.61,16.96-4.61M505.86,87.92h0c-6.4,0-12.59,1.68-18.4,5-8.38,4.78-15.05,12.54-18.78,21.85-3.75,9.36-4.39,19.89-1.78,29.66,5.11,19.12,19.98,31.47,37.89,31.47,1.85,0,3.74-.13,5.61-.39,4.22-.58,8.26-1.7,12.16-2.78,2.61-.72,5.08-1.41,7.55-1.92,4.58-.96,9.2-1.44,13.72-1.44,26.21,0,46.56,15.73,50.63,39.15,4.26,24.48-4.51,45.26-26.82,63.52-16.91,13.84-22.41,37.11-13.39,56.58,7.05,15.22,20.95,24.67,36.25,24.67,4.38,0,8.75-.77,12.99-2.3,19.5-7.03,30.02-27.41,26.18-50.72-1.04-6.3-2.67-12.29-4.4-18.39-7.32-25.85-1.82-46.32,16.82-62.56,5.08-4.43,9.1-8.25,12.64-12.02,12.29-13.1,15.82-31.87,9.21-48.99-6.25-16.18-19.38-25.84-35.11-25.84-1.15,0-2.33.05-3.51.16-8.53.76-16.71,3.47-25.03,6.42-7.67,2.72-14.06,4.04-19.55,4.04-11.47,0-20.53-5.76-31.29-19.88-2.85-3.75-5.64-8.03-8.27-12.74-7.89-14.11-21.1-22.53-35.33-22.53h0Z"/>
      <path class="cls-1" d="M587.84,44.67h0c13.13,0,25.35,7.81,32.67,20.9,2.71,4.85,5.58,9.27,8.54,13.15,11.42,14.99,21.18,21.11,33.69,21.11,5.82,0,12.53-1.38,20.51-4.21,8.14-2.89,16.12-5.54,24.32-6.26,1.09-.1,2.19-.15,3.26-.15,14.44,0,26.49,8.88,32.23,23.75,6.1,15.79,2.84,33.1-8.51,45.19-3.47,3.69-7.41,7.44-12.41,11.8-19.77,17.22-25.61,38.9-17.86,66.26,1.7,5.99,3.3,11.87,4.31,17.98,3.55,21.55-6.12,40.38-24.08,46.85-3.92,1.41-7.97,2.13-12.02,2.13-14.13,0-26.95-8.74-33.47-22.8-8.32-17.96-3.2-39.46,12.47-52.28,23.37-19.12,32.53-41.01,28.02-66.91-4.37-25.08-25.95-41.94-53.7-41.94-4.71,0-9.53.51-14.3,1.5-2.56.54-5.07,1.23-7.73,1.97-3.81,1.05-7.75,2.15-11.78,2.7-1.75.24-3.51.36-5.23.36-16.49,0-30.18-11.39-34.89-29-2.4-8.99-1.82-18.69,1.64-27.31,3.45-8.59,9.62-15.76,17.37-20.19,5.36-3.06,11.07-4.61,16.96-4.61M587.84,41.24h0c-6.4,0-12.59,1.68-18.4,5-8.38,4.78-15.05,12.54-18.78,21.85-3.75,9.36-4.39,19.89-1.78,29.66,5.11,19.12,19.98,31.47,37.89,31.47,1.85,0,3.74-.13,5.61-.39,4.22-.58,8.26-1.7,12.16-2.78,2.61-.72,5.08-1.41,7.55-1.92,4.58-.96,9.2-1.44,13.72-1.44,26.21,0,46.56,15.73,50.63,39.15,4.26,24.48-4.51,45.26-26.82,63.52-16.91,13.84-22.41,37.11-13.39,56.58,7.05,15.22,20.95,24.67,36.25,24.67,4.38,0,8.75-.77,12.99-2.3,19.5-7.03,30.02-27.41,26.18-50.72-1.04-6.3-2.67-12.29-4.4-18.39-7.32-25.85-1.82-46.32,16.82-62.56,5.08-4.43,9.1-8.25,12.64-12.02,12.29-13.1,15.82-31.87,9.21-48.99-6.25-16.18-19.38-25.84-35.11-25.84-1.15,0-2.33.05-3.51.16-8.53.76-16.71,3.47-25.03,6.42-7.67,2.72-14.06,4.04-19.55,4.04-11.47,0-20.53-5.76-31.29-19.88-2.85-3.75-5.64-8.03-8.27-12.74-7.89-14.11-21.1-22.53-35.33-22.53h0Z"/>
      <path class="cls-1" d="M463.31,3.43c14.46,0,27.42,9.03,33.81,23.56,7.99,18.15,2.45,39.52-13.45,51.99-23.72,18.59-33.3,40.26-29.28,66.26,1.96,12.65,8.26,23.48,18.24,31.29,9.76,7.65,22.61,11.87,36.18,11.87,4.22,0,8.53-.4,12.81-1.2,2.58-.48,5.1-1.12,7.77-1.79,3.83-.97,7.79-1.97,11.83-2.43,1.47-.17,2.95-.25,4.39-.25,16.9,0,30.71,11.7,35.18,29.8,2.23,9.04,1.47,18.73-2.15,27.27-3.61,8.51-9.91,15.54-17.74,19.79-5.18,2.81-10.67,4.23-16.3,4.23-13.44,0-25.77-8.09-33.01-21.64-2.62-4.91-5.41-9.4-8.29-13.34-11.35-15.54-21.24-21.87-34.15-21.88-5.61,0-12.07,1.23-19.72,3.75-8.19,2.7-16.22,5.17-24.43,5.71-.81.05-1.64.08-2.44.08-14.82,0-27.01-9.15-32.6-24.49-5.8-15.92-2.21-33.16,9.36-44.99,3.54-3.61,7.55-7.27,12.63-11.52,20.09-16.77,26.33-38.31,19.1-65.84-1.58-6.03-3.08-11.94-3.97-18.07-3.15-21.63,6.88-40.23,24.96-46.3,3.69-1.24,7.49-1.87,11.28-1.87M463.31,0c-4.1,0-8.2.68-12.19,2.02-19.63,6.59-30.53,26.73-27.13,50.11.92,6.32,2.44,12.35,4.05,18.48,6.83,26.01.95,46.35-17.99,62.16-5.16,4.31-9.25,8.04-12.87,11.74-12.54,12.82-16.42,31.51-10.13,48.77,6.08,16.68,19.35,26.64,35.49,26.64.87,0,1.75-.03,2.63-.09,8.54-.56,16.77-3.09,25.14-5.85,7.36-2.43,13.52-3.61,18.82-3.61,11.84,0,21.03,5.97,31.71,20.59,2.78,3.81,5.49,8.16,8.03,12.93,7.8,14.61,21.15,23.34,35.7,23.34,6.12,0,12.07-1.54,17.68-4.59,8.47-4.59,15.28-12.2,19.19-21.42,3.93-9.27,4.76-19.79,2.33-29.61-4.85-19.64-19.84-32.33-38.19-32.33-1.55,0-3.14.09-4.72.27-4.23.48-8.29,1.51-12.21,2.5-2.63.66-5.11,1.29-7.59,1.75-4.11.76-8.24,1.15-12.29,1.15-12.92,0-25.13-3.99-34.36-11.23-9.29-7.28-15.16-17.34-16.97-29.08-3.8-24.57,5.36-45.14,28.01-62.9,17.17-13.45,23.11-36.59,14.45-56.27-6.92-15.73-20.95-25.5-36.62-25.5h0Z"/>
      <path class="cls-1" d="M490.34,99c16.26-9.28,35.53-2.83,45.53,15.04,2.64,4.72,5.57,9.31,8.8,13.55,17.19,22.56,32.14,26.98,57.56,17.96,7.68-2.73,15.63-5.4,23.61-6.11,14.96-1.32,26.84,7.24,32.36,21.53,5.53,14.31,2.61,30.3-7.81,41.4-3.85,4.1-7.97,7.91-12.17,11.57-21.22,18.49-26.82,41.98-18.9,69.96,1.64,5.78,3.24,11.63,4.22,17.57,3.29,19.94-5.6,37.08-21.98,42.99-16.47,5.94-33.85-1.96-41.73-18.96-7.69-16.59-2.73-36.29,11.55-47.98,21.39-17.51,34.49-40.07,29.23-70.3-5.59-32.09-37.16-50.36-71.65-43.15-6.48,1.35-12.81,3.74-19.32,4.63-17.44,2.39-31.92-8.18-36.74-26.21-4.54-16.99,2.72-35.09,17.45-43.49Z"/>
      <path class="cls-1" d="M572.32,52.32c16.26-9.28,35.53-2.83,45.53,15.04,2.64,4.72,5.57,9.31,8.8,13.55,17.19,22.56,32.14,26.98,57.56,17.96,7.68-2.73,15.63-5.4,23.61-6.11,14.96-1.32,26.84,7.24,32.36,21.53,5.53,14.31,2.61,30.3-7.81,41.4-3.85,4.1-7.97,7.91-12.17,11.57-21.22,18.49-26.82,41.98-18.9,69.96,1.64,5.78,3.24,11.63,4.22,17.57,3.29,19.94-5.6,37.08-21.98,42.99-16.47,5.94-33.85-1.96-41.73-18.96-7.69-16.59-2.73-36.29,11.55-47.98,21.39-17.51,34.49-40.07,29.23-70.3-5.59-32.09-37.16-50.36-71.65-43.15-6.48,1.35-12.81,3.74-19.32,4.63-17.44,2.39-31.92-8.18-36.74-26.21-4.54-16.99,2.72-35.09,17.45-43.49Z"/>
      <path class="cls-1" d="M559.51,256.51c-16.43,8.91-35.58,2.02-45.23-16.07-2.55-4.78-5.39-9.43-8.55-13.75-16.76-22.94-31.62-27.7-57.21-19.26-7.73,2.55-15.73,5.05-23.72,5.57-14.98.99-26.7-7.85-31.95-22.26-5.26-14.43-2.04-30.35,8.59-41.21,3.92-4.01,8.12-7.73,12.39-11.3,21.57-18.01,27.61-41.36,20.21-69.51-1.53-5.82-3.02-11.7-3.89-17.67-2.91-20.01,6.3-36.95,22.79-42.48,16.58-5.56,33.81,2.73,41.37,19.91,7.37,16.76,2.05,36.34-12.45,47.71-21.72,17.02-35.23,39.28-30.54,69.62,4.98,32.21,36.21,51.19,70.82,44.77,6.5-1.21,12.87-3.45,19.4-4.19,17.48-2,31.76,8.9,36.24,27.03,4.22,17.09-3.38,35.02-18.26,43.09Z"/>
      <path class="cls-1" d="M73.59,276.15h32.4v97.6h-32.4v-8.98c-6.64,7.81-15.88,11.71-27.72,11.71-13.01,0-23.91-4.91-32.69-14.74-8.78-9.82-13.18-22.09-13.18-36.79s4.39-26.97,13.18-36.79c8.78-9.82,19.68-14.74,32.69-14.74,11.84,0,21.08,3.91,27.72,11.71v-8.98ZM38.26,340.37c3.77,3.9,8.72,5.86,14.83,5.86s11.06-1.95,14.83-5.86c3.77-3.9,5.66-9.04,5.66-15.42s-1.89-11.52-5.66-15.42c-3.78-3.9-8.72-5.86-14.83-5.86s-11.06,1.95-14.83,5.86c-3.78,3.9-5.66,9.05-5.66,15.42s1.88,11.52,5.66,15.42Z"/>
      <path class="cls-1" d="M190.6,276.15h9.89c12.22,0,22.12,9.9,22.12,22.12v71.57c0,7.81-1.46,22.22-4.39,28.27-2.93,6.05-6.87,10.86-11.81,14.44-4.95,3.58-10.38,6.25-16.3,8-5.92,1.76-12.2,2.64-18.84,2.64-10.8,0-20.43-2.02-28.89-6.05-8.46-4.03-14.83-9.95-19.13-17.76l26.94-15.62c4.68,7.42,11.58,11.13,20.69,11.13,5.86,0,10.6-1.5,14.25-4.49,3.64-3,5.47-7.35,5.47-13.08v-16.85c-6.64,8.07-15.75,12.1-27.33,12.1-13.4,0-24.5-4.81-33.28-14.44-8.78-9.63-13.18-21.34-13.18-35.13s4.39-25.5,13.18-35.14c8.78-9.63,19.88-14.44,33.28-14.44,11.58,0,20.69,4.04,27.33,12.1v-9.37ZM154.98,337.54c3.84,3.84,8.81,5.76,14.93,5.76s11.09-1.92,14.93-5.76c3.84-3.84,5.76-8.69,5.76-14.54s-1.92-10.7-5.76-14.54c-3.84-3.84-8.82-5.76-14.93-5.76s-11.1,1.92-14.93,5.76c-3.84,3.84-5.76,8.69-5.76,14.54s1.92,10.7,5.76,14.54Z"/>
      <path class="cls-1" d="M264.97,336.86c3.25,7.94,10.54,11.91,21.86,11.91,7.03,0,12.95-2.27,17.76-6.83l23.42,16.4c-9.63,12.1-23.62,18.15-41.97,18.15-16.53,0-29.77-4.85-39.72-14.54-9.95-9.69-14.93-21.96-14.93-36.79s4.88-27,14.64-36.89c9.76-9.89,22.19-14.83,37.28-14.83s26.61,4.88,36.11,14.64c9.5,9.76,14.25,21.99,14.25,36.7,0,4.29-.46,8.33-1.37,12.1h-67.34ZM264.58,314.41h37.48c-2.6-9.11-8.72-13.66-18.35-13.66s-16.4,4.56-19.13,13.66Z"/>
      <path class="cls-1" d="M376.04,336.86c3.25,7.94,10.54,11.91,21.86,11.91,7.03,0,12.95-2.27,17.76-6.83l23.42,16.4c-9.63,12.1-23.62,18.15-41.97,18.15-16.53,0-29.77-4.85-39.72-14.54-9.95-9.69-14.93-21.96-14.93-36.79s4.88-27,14.64-36.89c9.76-9.89,22.19-14.83,37.28-14.83s26.61,4.88,36.11,14.64c9.5,9.76,14.25,21.99,14.25,36.7,0,4.29-.46,8.33-1.37,12.1h-67.34ZM375.65,314.41h37.48c-2.6-9.11-8.72-13.66-18.35-13.66s-16.4,4.56-19.13,13.66Z"/>
      <path class="cls-1" d="M456.07,373.75v-142.49h11.94c11.3,0,20.46,9.16,20.46,20.46v101.41c0,11.39-9.23,20.62-20.62,20.62h-11.78Z"/>
      <g>
        <path class="cls-1" d="M230.97,405.03c0-.39.12-.73.36-1,.24-.27.6-.41,1.07-.41s.83.14,1.08.41c.25.27.37.6.37,1s-.12.72-.37.99c-.25.26-.6.39-1.08.39s-.83-.13-1.07-.39c-.24-.26-.36-.59-.36-.99ZM233.6,423.03h-2.43v-14.22h2.43v14.22Z"/>
        <path class="cls-1" d="M239.79,408.81l.08,1.79c1.09-1.37,2.51-2.05,4.26-2.05,3.01,0,4.52,1.7,4.55,5.09v9.4h-2.43v-9.41c0-1.03-.24-1.78-.7-2.27-.46-.49-1.18-.74-2.15-.74-.79,0-1.48.21-2.08.63-.6.42-1.06.97-1.39,1.66v10.13h-2.43v-14.22h2.3Z"/>
        <path class="cls-1" d="M251.77,415.8c0-2.22.51-3.98,1.54-5.29,1.03-1.31,2.38-1.96,4.07-1.96s3.09.61,4.06,1.84l.12-1.58h2.22v13.88c0,1.84-.54,3.29-1.64,4.35-1.09,1.06-2.56,1.59-4.4,1.59-1.03,0-2.03-.22-3.01-.66-.98-.44-1.73-1.04-2.25-1.8l1.26-1.46c1.04,1.29,2.32,1.93,3.83,1.93,1.18,0,2.11-.33,2.77-1,.66-.67.99-1.6.99-2.81v-1.22c-.97,1.12-2.3,1.68-3.98,1.68s-3.01-.67-4.04-2.01c-1.03-1.34-1.54-3.17-1.54-5.48ZM254.21,416.08c0,1.6.33,2.86.99,3.78.66.92,1.58,1.37,2.76,1.37,1.53,0,2.66-.7,3.38-2.09v-6.49c-.75-1.36-1.86-2.04-3.35-2.04-1.18,0-2.11.46-2.77,1.38s-1,2.28-1,4.09Z"/>
        <path class="cls-1" d="M273.35,423.29c-1.93,0-3.5-.63-4.71-1.9-1.21-1.27-1.81-2.96-1.81-5.08v-.45c0-1.41.27-2.67.81-3.78s1.29-1.98,2.26-2.6c.97-.63,2.02-.94,3.15-.94,1.85,0,3.29.61,4.31,1.83,1.03,1.22,1.54,2.96,1.54,5.23v1.01h-9.63c.04,1.4.44,2.53,1.23,3.4.78.86,1.78,1.29,2.99,1.29.86,0,1.59-.18,2.18-.53.6-.35,1.12-.81,1.56-1.39l1.49,1.16c-1.19,1.83-2.98,2.75-5.36,2.75ZM273.05,410.54c-.98,0-1.81.36-2.47,1.07-.67.71-1.08,1.72-1.24,3h7.12v-.18c-.07-1.24-.4-2.19-1-2.87-.6-.68-1.4-1.02-2.42-1.02Z"/>
        <path class="cls-1" d="M284.01,408.81l.08,1.79c1.09-1.37,2.51-2.05,4.26-2.05,3.01,0,4.52,1.7,4.55,5.09v9.4h-2.43v-9.41c0-1.03-.24-1.78-.7-2.27-.46-.49-1.18-.74-2.15-.74-.79,0-1.48.21-2.08.63-.6.42-1.06.97-1.39,1.66v10.13h-2.43v-14.22h2.3Z"/>
        <path class="cls-1" d="M296.58,405.03c0-.39.12-.73.36-1,.24-.27.6-.41,1.07-.41s.83.14,1.08.41c.25.27.37.6.37,1s-.12.72-.37.99c-.25.26-.6.39-1.08.39s-.83-.13-1.07-.39c-.24-.26-.36-.59-.36-.99ZM299.21,423.03h-2.43v-14.22h2.43v14.22Z"/>
        <path class="cls-1" d="M309,423.29c-1.93,0-3.5-.63-4.71-1.9-1.21-1.27-1.81-2.96-1.81-5.08v-.45c0-1.41.27-2.67.81-3.78s1.29-1.98,2.26-2.6c.97-.63,2.02-.94,3.15-.94,1.85,0,3.29.61,4.31,1.83,1.03,1.22,1.54,2.96,1.54,5.23v1.01h-9.63c.04,1.4.44,2.53,1.23,3.4.78.86,1.78,1.29,2.99,1.29.86,0,1.59-.18,2.18-.53.6-.35,1.12-.81,1.56-1.39l1.49,1.16c-1.19,1.83-2.98,2.75-5.36,2.75ZM308.7,410.54c-.98,0-1.81.36-2.47,1.07-.67.71-1.08,1.72-1.24,3h7.12v-.18c-.07-1.24-.4-2.19-1-2.87-.6-.68-1.4-1.02-2.42-1.02Z"/>
        <path class="cls-1" d="M324.23,410.99c-.37-.06-.77-.09-1.2-.09-1.59,0-2.68.68-3.25,2.04v10.09h-2.43v-14.22h2.37l.04,1.64c.8-1.27,1.93-1.91,3.39-1.91.47,0,.83.06,1.08.18v2.26Z"/>
        <path class="cls-1" d="M329.14,402.85h2.94l-3.52,3.86h-1.96s2.54-3.86,2.54-3.86ZM329.11,423.03h-2.45v-14.22h2.45v14.22Z"/>
        <path class="cls-1" d="M341.9,423.03c-.14-.28-.25-.78-.34-1.5-1.13,1.17-2.48,1.76-4.05,1.76-1.4,0-2.55-.4-3.45-1.19-.9-.79-1.35-1.8-1.35-3.02,0-1.48.56-2.63,1.69-3.45s2.71-1.23,4.75-1.23h2.37v-1.12c0-.85-.25-1.53-.76-2.03-.51-.5-1.26-.76-2.25-.76-.87,0-1.6.22-2.18.66s-.88.97-.88,1.59h-2.45c0-.71.25-1.39.76-2.06.5-.66,1.19-1.19,2.05-1.57.86-.38,1.81-.58,2.85-.58,1.64,0,2.92.41,3.85,1.23s1.41,1.95,1.45,3.38v6.55c0,1.31.17,2.34.5,3.12v.21h-2.55ZM337.86,421.18c.76,0,1.49-.2,2.17-.59.68-.39,1.18-.91,1.49-1.54v-2.92h-1.91c-2.98,0-4.47.87-4.47,2.62,0,.76.25,1.36.76,1.79.51.43,1.16.64,1.96.64Z"/>
        <path class="cls-1" d="M359.08,419.47l3.31-10.66h2.6l-5.72,16.42c-.88,2.37-2.29,3.55-4.22,3.55l-.46-.04-.91-.17v-1.97l.66.05c.82,0,1.47-.17,1.93-.5s.84-.94,1.14-1.83l.54-1.45-5.07-14.06h2.66l3.55,10.66Z"/>
        <path class="cls-1" d="M385.84,416.08c0,2.16-.5,3.91-1.49,5.23s-2.33,1.98-4.02,1.98-3.08-.55-4.08-1.64v6.85h-2.43v-19.69h2.22l.12,1.58c.99-1.23,2.37-1.84,4.13-1.84s3.06.64,4.06,1.93c.99,1.29,1.49,3.08,1.49,5.38v.22ZM383.41,415.8c0-1.6-.34-2.87-1.03-3.8s-1.62-1.39-2.81-1.39c-1.47,0-2.58.65-3.31,1.96v6.8c.73,1.3,1.84,1.95,3.34,1.95,1.17,0,2.09-.46,2.78-1.39s1.03-2.3,1.03-4.12Z"/>
        <path class="cls-1" d="M395.8,410.99c-.37-.06-.77-.09-1.2-.09-1.59,0-2.68.68-3.25,2.04v10.09h-2.43v-14.22h2.37l.04,1.64c.8-1.27,1.93-1.91,3.39-1.91.47,0,.83.06,1.08.18v2.26Z"/>
        <path class="cls-1" d="M397.13,415.79c0-1.39.27-2.65.82-3.76.55-1.11,1.31-1.97,2.29-2.58s2.09-.91,3.35-.91c1.94,0,3.5.67,4.7,2.01,1.2,1.34,1.79,3.12,1.79,5.35v.17c0,1.38-.27,2.63-.8,3.73s-1.29,1.96-2.27,2.57c-.99.61-2.12.92-3.4.92-1.93,0-3.49-.67-4.69-2.01s-1.79-3.12-1.79-5.32v-.17ZM399.58,416.08c0,1.58.37,2.84,1.1,3.8s1.71,1.43,2.94,1.43,2.22-.48,2.94-1.45c.73-.97,1.09-2.32,1.09-4.07,0-1.56-.37-2.82-1.11-3.79-.74-.97-1.72-1.45-2.95-1.45s-2.17.48-2.91,1.43-1.1,2.32-1.1,4.1Z"/>
        <path class="cls-1" d="M417.59,419.47l3.31-10.66h2.6l-5.72,16.42c-.88,2.37-2.29,3.55-4.22,3.55l-.46-.04-.91-.17v-1.97l.66.05c.82,0,1.46-.17,1.92-.5.46-.33.84-.94,1.14-1.83l.54-1.45-5.07-14.06h2.66l3.55,10.66Z"/>
        <path class="cls-1" d="M431.4,423.29c-1.93,0-3.5-.63-4.71-1.9-1.21-1.27-1.81-2.96-1.81-5.08v-.45c0-1.41.27-2.67.81-3.78.54-1.11,1.29-1.98,2.26-2.6.97-.63,2.02-.94,3.15-.94,1.85,0,3.29.61,4.31,1.83,1.03,1.22,1.54,2.96,1.54,5.23v1.01h-9.63c.04,1.4.44,2.53,1.23,3.4s1.78,1.29,2.99,1.29c.86,0,1.59-.18,2.18-.53.6-.35,1.12-.81,1.56-1.39l1.48,1.16c-1.19,1.83-2.98,2.75-5.36,2.75ZM431.1,410.54c-.98,0-1.8.36-2.47,1.07-.67.71-1.08,1.72-1.24,3h7.12v-.18c-.07-1.24-.4-2.19-1-2.87-.6-.68-1.4-1.02-2.42-1.02Z"/>
        <path class="cls-1" d="M445.47,421.31c.87,0,1.62-.26,2.27-.79.65-.53,1.01-1.18,1.08-1.97h2.3c-.04.82-.32,1.59-.84,2.33-.52.74-1.21,1.32-2.07,1.76-.86.44-1.78.66-2.74.66-1.94,0-3.48-.65-4.62-1.94s-1.72-3.06-1.72-5.3v-.41c0-1.38.25-2.62.76-3.69.51-1.08,1.24-1.91,2.19-2.51.95-.6,2.07-.89,3.37-.89,1.6,0,2.92.48,3.98,1.43,1.06.96,1.62,2.2,1.69,3.72h-2.3c-.07-.92-.42-1.68-1.04-2.27-.63-.59-1.4-.89-2.32-.89-1.24,0-2.19.45-2.87,1.33-.68.89-1.02,2.18-1.02,3.86v.46c0,1.64.34,2.9,1.01,3.79.67.89,1.64,1.33,2.89,1.33Z"/>
        <path class="cls-1" d="M457.15,405.36v3.44h2.66v1.88h-2.66v8.83c0,.57.12,1,.35,1.28s.64.43,1.21.43c.28,0,.67-.05,1.16-.16v1.96c-.64.17-1.26.26-1.87.26-1.09,0-1.91-.33-2.46-.99-.55-.66-.83-1.59-.83-2.8v-8.82h-2.59v-1.88h2.59v-3.44h2.43Z"/>
        <path class="cls-1" d="M461.74,415.79c0-1.39.27-2.65.82-3.76.55-1.11,1.31-1.97,2.29-2.58s2.09-.91,3.35-.91c1.94,0,3.5.67,4.7,2.01,1.2,1.34,1.79,3.12,1.79,5.35v.17c0,1.38-.27,2.63-.8,3.73s-1.29,1.96-2.27,2.57c-.99.61-2.12.92-3.4.92-1.93,0-3.49-.67-4.69-2.01s-1.79-3.12-1.79-5.32v-.17ZM464.18,416.08c0,1.58.37,2.84,1.1,3.8s1.71,1.43,2.94,1.43,2.22-.48,2.94-1.45c.73-.97,1.09-2.32,1.09-4.07,0-1.56-.37-2.82-1.11-3.79-.74-.97-1.72-1.45-2.95-1.45s-2.17.48-2.91,1.43-1.1,2.32-1.1,4.1Z"/>
        <path class="cls-1" d="M486.01,419.26c0-.66-.25-1.17-.74-1.53-.5-.36-1.36-.68-2.59-.94-1.23-.26-2.21-.58-2.93-.95-.72-.37-1.26-.81-1.6-1.31-.35-.51-.52-1.11-.52-1.81,0-1.17.49-2.15,1.48-2.96.99-.81,2.25-1.21,3.78-1.21,1.61,0,2.92.42,3.92,1.25,1,.83,1.51,1.9,1.51,3.19h-2.45c0-.67-.28-1.24-.85-1.72-.57-.48-1.28-.72-2.14-.72s-1.58.19-2.08.58c-.5.39-.75.89-.75,1.51,0,.59.23,1.03.7,1.33s1.3.58,2.52.85c1.21.27,2.2.6,2.95.97.75.38,1.31.83,1.68,1.36.36.53.54,1.18.54,1.94,0,1.27-.51,2.29-1.52,3.06-1.02.77-2.34,1.15-3.96,1.15-1.14,0-2.15-.2-3.02-.6-.88-.4-1.56-.97-2.06-1.69-.5-.72-.74-1.5-.74-2.35h2.43c.04.81.37,1.46.98,1.94.61.48,1.41.72,2.41.72.92,0,1.66-.19,2.21-.56.56-.37.83-.87.83-1.49Z"/>
      </g>
    </g>
  </g>
</svg>